<svg width="320" height="320" viewBox="0 0 320 320" fill="none" xmlns="http://www.w3.org/2000/svg">
<rect width="320" height="320" rx="56" fill="white"/>
<path d="M262.238 60.9126L49.5877 140.679C47.5881 141.428 45.8583 142.758 44.6213 144.498C43.3842 146.239 42.6965 148.31 42.6467 150.445C42.5969 152.58 43.1873 154.681 44.3419 156.478C45.4965 158.274 47.1624 159.684 49.1249 160.525L99.5055 182.121L205.363 111.527C205.633 111.306 205.944 111.14 206.279 111.039C206.613 110.938 206.965 110.903 207.312 110.938C207.66 110.972 207.998 111.075 208.306 111.24C208.614 111.405 208.886 111.629 209.108 111.9C209.329 112.17 209.495 112.482 209.596 112.816C209.697 113.151 209.732 113.502 209.697 113.85C209.663 114.198 209.56 114.535 209.395 114.843C209.23 115.151 209.006 115.424 208.735 115.645L131.603 192.794V246.298L163.685 214.209L214.752 256.774C216.142 257.933 217.804 258.721 219.582 259.062C221.36 259.403 223.195 259.287 224.916 258.725C226.637 258.163 228.187 257.173 229.421 255.848C230.655 254.524 231.532 252.907 231.971 251.15L276.372 73.549C276.851 71.6548 276.801 69.6658 276.23 67.7976C275.658 65.9294 274.586 64.2535 273.13 62.9515C271.673 61.6495 269.888 60.7711 267.969 60.4117C266.049 60.0523 264.067 60.2255 262.238 60.9126Z" fill="#F1F3F4"/>
<path d="M221.561 267.256C217.201 267.252 212.981 265.715 209.64 262.914L164.164 225.01L137.231 251.943C136.115 253.058 134.694 253.817 133.147 254.124C131.6 254.432 129.997 254.273 128.54 253.67C127.083 253.067 125.837 252.045 124.96 250.734C124.083 249.422 123.615 247.881 123.613 246.303V192.821C123.613 191.772 123.819 190.734 124.22 189.766C124.62 188.797 125.208 187.917 125.949 187.176L165.217 147.899L103.931 188.761C102.828 189.497 101.558 189.946 100.237 190.068C98.9167 190.189 97.5865 189.98 96.3671 189.458L45.9865 167.862C42.5599 166.394 39.6512 163.933 37.6349 160.797C35.6185 157.661 34.5868 153.993 34.6727 150.265C34.7585 146.538 35.9579 142.921 38.1165 139.882C40.275 136.842 43.2939 134.518 46.7844 133.209L259.44 53.4425C262.628 52.2483 266.082 51.9482 269.428 52.5747C272.774 53.2012 275.885 54.7305 278.425 56.9972C280.965 59.2639 282.837 62.1819 283.84 65.4357C284.842 68.6896 284.936 72.1556 284.112 75.4591L239.711 253.098C238.953 256.169 237.423 258.995 235.267 261.309C233.111 263.623 230.4 265.347 227.391 266.319C225.508 266.935 223.541 267.251 221.561 267.256ZM163.674 206.229C165.541 206.229 167.348 206.885 168.781 208.08L219.848 250.645C220.2 250.943 220.622 251.145 221.075 251.233C221.528 251.32 221.995 251.29 222.433 251.145C222.873 251.007 223.27 250.757 223.584 250.419C223.898 250.082 224.119 249.668 224.226 249.219L268.622 71.5857C268.74 71.1066 268.725 70.6045 268.579 70.1332C268.433 69.662 268.161 69.2395 267.793 68.9112C267.425 68.5828 266.974 68.3611 266.489 68.2699C266.005 68.1787 265.504 68.2213 265.042 68.3933L52.3858 148.149C51.8781 148.34 51.4393 148.679 51.1257 149.122C50.8121 149.564 50.6381 150.091 50.6261 150.633C50.6141 151.176 50.7646 151.709 51.0583 152.165C51.3519 152.622 51.7754 152.979 52.2741 153.193L98.6757 173.081L200.948 104.887C203.145 103.385 205.826 102.761 208.46 103.138C211.095 103.516 213.493 104.867 215.18 106.927C216.867 108.986 217.722 111.602 217.574 114.261C217.427 116.919 216.289 119.425 214.385 121.285L139.572 196.125V227.032L158.03 208.57C158.771 207.828 159.651 207.239 160.619 206.837C161.588 206.436 162.626 206.229 163.674 206.229Z" fill="#8D9CF4"/>
<path d="M49.5877 148.66C47.7295 148.646 45.9344 147.983 44.5122 146.787C43.0901 145.59 42.13 143.935 41.7978 142.106C41.4655 140.277 41.7819 138.39 42.6922 136.769C43.6026 135.149 45.0499 133.897 46.7844 133.23L259.44 53.4425C262.628 52.2483 266.082 51.9482 269.428 52.5747C272.774 53.2012 275.885 54.7305 278.425 56.9972C280.965 59.2639 282.837 62.1819 283.84 65.4357C284.842 68.6896 284.936 72.1556 284.112 75.4591C283.6 77.513 282.293 79.2792 280.479 80.3693C278.665 81.4594 276.492 81.7841 274.439 81.2718C272.385 80.7596 270.619 79.4524 269.529 77.6379C268.44 75.8234 268.115 73.6502 268.627 71.5963C268.743 71.1176 268.727 70.6163 268.58 70.146C268.434 69.6757 268.162 69.2541 267.794 68.9263C267.427 68.5984 266.977 68.3767 266.493 68.2847C266.009 68.1927 265.509 68.2339 265.047 68.404L52.3858 148.149C51.492 148.488 50.5437 148.661 49.5877 148.66Z" fill="#7BCDD1"/>
</svg>
